<svg width="35" height="37" viewBox="0 0 35 37" fill="none" xmlns="http://www.w3.org/2000/svg">
<path d="M10.8145 1.15137C12.4261 1.15137 13.7361 2.46171 13.7363 4.07324C13.7363 5.68506 12.4258 6.99512 10.8145 6.99512C10.0363 6.99508 9.33069 6.6877 8.80664 6.19043C4.55141 8.8999 1.93164 13.6374 1.93164 18.7012C1.93183 26.0192 7.26573 32.1162 14.249 33.3086C14.0255 32.9373 14.0734 32.4483 14.3936 32.1279C14.7704 31.7511 15.3819 31.751 15.7588 32.1279L17.4336 33.8027L17.4404 33.8105C17.4435 33.8137 17.4472 33.8162 17.4502 33.8193L17.5146 33.8945L17.5244 33.9082L17.5283 33.9131C17.5313 33.9171 17.5333 33.9217 17.5361 33.9258L17.5713 33.9756C17.5751 33.9818 17.5774 33.9889 17.5811 33.9951C17.5979 34.0236 17.6122 34.0531 17.626 34.083C17.6408 34.1152 17.6539 34.1475 17.665 34.1807C17.6738 34.2068 17.682 34.233 17.6885 34.2598C17.6934 34.2802 17.6966 34.3007 17.7002 34.3213C17.7053 34.3505 17.7095 34.3796 17.7119 34.4092C17.7135 34.4297 17.7145 34.4501 17.7148 34.4707C17.7154 34.5042 17.7149 34.5377 17.7119 34.5713C17.7107 34.5846 17.7107 34.5981 17.709 34.6113C17.7027 34.6593 17.6914 34.7067 17.6777 34.7539C17.6736 34.7681 17.6688 34.7819 17.6641 34.7959C17.6573 34.8159 17.6517 34.8368 17.6436 34.8564L17.6426 34.8555C17.64 34.8617 17.6355 34.867 17.6328 34.873C17.6081 34.9293 17.5795 34.9838 17.5439 35.0352L17.9639 35.4531H17.082L15.3496 36.7969C15.3206 36.8193 15.2884 36.8368 15.2578 36.8555V37H14.7578C14.5062 36.9999 14.2563 36.9011 14.0703 36.7129L13.9941 36.626C13.667 36.2044 13.7441 35.5975 14.165 35.2705L14.1826 35.2559C6.16073 34.016 0.000188956 27.0649 0 18.7012C0 15.709 0.798651 12.7713 2.31055 10.2061L2.59277 9.74414C3.94658 7.60856 5.77351 5.79745 7.9209 4.46289C7.90385 4.33541 7.89258 4.20533 7.89258 4.07324C7.89285 2.46176 9.20292 1.15145 10.8145 1.15137ZM19.4766 0.203125C19.8718 -0.103591 20.4299 -0.0553221 20.7676 0.298828L20.832 0.374023L20.8887 0.455078C21.1308 0.842704 21.0671 1.35004 20.7363 1.66504L20.6611 1.72949L20.6436 1.74219C28.6661 2.98148 34.8271 9.93356 34.8271 18.2979C34.8271 21.1031 34.1247 23.8604 32.791 26.3076L32.5166 26.792C31.1414 29.1253 29.212 31.099 26.916 32.5283L26.6641 32.6787C26.6764 32.7875 26.6855 32.8977 26.6855 33.0098C26.6855 34.6215 25.3753 35.9315 23.7637 35.9316C22.152 35.9316 20.8418 34.6215 20.8418 33.0098C20.8419 31.3982 22.1521 30.088 23.7637 30.0879C24.5638 30.088 25.2894 30.4112 25.8174 30.9336L25.9072 30.8809C30.2292 28.1838 32.8944 23.4064 32.8945 18.2979C32.8945 10.9799 27.5612 4.88311 20.5781 3.69043C20.7849 4.03431 20.7594 4.47865 20.5 4.79688L20.4336 4.87012C20.0801 5.22415 19.5199 5.24636 19.1406 4.93652L19.0674 4.87012L17.6768 3.47949H17.5752V3.37793L17.3926 3.19531C17.3911 3.19385 17.3892 3.19288 17.3877 3.19141L17.3125 3.10449C17.3105 3.10186 17.3087 3.09835 17.3066 3.0957C17.2967 3.08263 17.2875 3.06915 17.2783 3.05566C17.2628 3.033 17.2487 3.00984 17.2354 2.98633C17.2292 2.97551 17.2225 2.96511 17.2168 2.9541C17.1984 2.91839 17.1826 2.88183 17.1689 2.84473C17.1653 2.83476 17.1625 2.82452 17.1592 2.81445C17.1481 2.78086 17.1381 2.74717 17.1309 2.71289C17.1293 2.70539 17.1274 2.69796 17.126 2.69043C17.1183 2.64963 17.1127 2.60856 17.1104 2.56738C17.1099 2.55992 17.1106 2.5524 17.1104 2.54492C17.1092 2.51036 17.1098 2.47582 17.1123 2.44141C17.1132 2.42868 17.1148 2.41603 17.1162 2.40332C17.1209 2.36152 17.1286 2.32018 17.1387 2.2793C17.1392 2.27707 17.1391 2.27468 17.1396 2.27246C17.1495 2.2337 17.1621 2.19561 17.1768 2.1582C17.1788 2.15308 17.1805 2.14768 17.1826 2.14258L17.1875 2.13184C17.2037 2.09381 17.222 2.05646 17.2432 2.02051L17.248 2.0127C17.2518 2.00642 17.2558 2.00031 17.2598 1.99414C17.2731 1.97309 17.2876 1.95273 17.3027 1.93262C17.3122 1.91998 17.322 1.90762 17.332 1.89551C17.3762 1.84234 17.4266 1.79314 17.4834 1.74902L17.4873 1.74512C17.4915 1.74187 17.4957 1.73853 17.5 1.73535L19.4766 0.204102V0.203125ZM23.7637 32.0195C23.2186 32.0196 22.7736 32.4647 22.7734 33.0098C22.7734 33.5549 23.2185 33.9999 23.7637 34C24.3088 33.9999 24.7539 33.5549 24.7539 33.0098C24.7538 32.4647 24.3087 32.0197 23.7637 32.0195ZM18.7061 5.91895C19.3403 5.91906 19.8782 6.36534 20.0049 6.97461L20.0254 7.09766V7.09863L20.374 10.2305C20.7807 10.3632 21.176 10.5261 21.5576 10.7188L24.042 8.76758L24.1436 8.69531C24.663 8.36097 25.3539 8.42884 25.7988 8.87305H25.7998L27.1436 10.2178L27.2285 10.3105C27.5988 10.7582 27.6343 11.3971 27.3154 11.8828L27.2412 11.9844L25.2891 14.4238C25.4893 14.813 25.6585 15.2164 25.7959 15.6318L28.9004 16.0049L29.0234 16.0254C29.6279 16.1559 30.0691 16.6933 30.0693 17.3223V19.2236C30.0693 19.8579 29.6229 20.3955 29.0137 20.5225L28.8896 20.542L25.8271 20.8828C25.6901 21.3129 25.5187 21.7306 25.3145 22.1338L27.2197 24.5586L27.292 24.6602C27.6266 25.1796 27.5589 25.8716 27.1143 26.3164L25.7705 27.6611L25.7695 27.6602C25.3216 28.1085 24.6263 28.1742 24.1055 27.833L24.0029 27.7588L21.6201 25.8535C21.2102 26.0651 20.7849 26.2432 20.3467 26.3848L19.9824 29.4189C19.9024 30.0851 19.3362 30.5851 18.666 30.5859V30.5869H16.7656C16.1317 30.5869 15.5934 30.1412 15.4668 29.5312L15.4463 29.4072L15.1094 26.3799C14.6709 26.2375 14.2456 26.0589 13.8359 25.8467L11.4297 27.7373C10.935 28.1257 10.2396 28.1111 9.76367 27.7168L9.67188 27.6328L8.32812 26.2891C7.84976 25.8107 7.80759 25.0508 8.22949 24.5225L10.1484 22.1211C9.94489 21.7175 9.77393 21.2994 9.6377 20.8691L6.56934 20.501V20.5C5.9029 20.4198 5.40137 19.8544 5.40137 19.1836V17.2832C5.40137 16.607 5.90854 16.0389 6.58105 15.9639L9.67871 15.6182C9.81664 15.2038 9.98697 14.8015 10.1875 14.4131L8.25098 11.9473C7.83595 11.4192 7.88232 10.6636 8.35645 10.1895L9.7002 8.8457L9.79297 8.76074C10.2724 8.36335 10.9717 8.35169 11.4668 8.74707L13.9258 10.7129C14.3081 10.5207 14.7035 10.3576 15.1104 10.2256L15.4883 7.08691L15.5088 6.96387C15.6398 6.36007 16.1763 5.91895 16.8057 5.91895H18.7061ZM16.9531 11.0947C16.9049 11.497 16.6103 11.827 16.2158 11.9199L16.2148 11.9189C15.6321 12.0572 15.0738 12.2754 14.5508 12.5664L14.3281 12.6953C14.0251 12.8799 13.6485 12.8814 13.3467 12.709L13.2227 12.625L10.6826 10.5957L10.1025 11.1758L12.1055 13.7275L12.1895 13.8525C12.3592 14.1562 12.3539 14.5331 12.166 14.835V14.8359C11.844 15.3517 11.5968 15.906 11.4297 16.4873L11.3633 16.7383C11.279 17.0832 11.0133 17.3492 10.6787 17.4404L10.5312 17.4688L7.33398 17.8242V18.6465L10.5137 19.0293L10.6611 19.0586C10.9963 19.1535 11.2603 19.4243 11.3398 19.7725L11.4033 20.0293C11.5647 20.6228 11.8089 21.1895 12.1309 21.7168L12.1992 21.8506C12.3323 22.1718 12.2826 22.5444 12.0605 22.8223L12.0615 22.8232L10.0762 25.3057L10.6582 25.8867L13.1514 23.9277H13.1523L13.2773 23.8447C13.5378 23.6992 13.8523 23.6819 14.127 23.7988L14.2607 23.8691L14.4912 24.0068C15.0326 24.3157 15.6127 24.5443 16.2188 24.6875L16.3633 24.7334C16.6407 24.847 16.8497 25.084 16.9287 25.3721L16.957 25.5205L17.3066 28.6553H18.1289L18.5068 25.5137C18.5552 25.1105 18.8507 24.7811 19.2451 24.6885L19.5029 24.6221C20.0159 24.479 20.5089 24.274 20.9736 24.0098L21.2041 23.8721C21.5086 23.6821 21.889 23.6791 22.1934 23.8525L22.3184 23.9375L24.7881 25.9102L25.3682 25.3301L23.3994 22.8232V22.8223C23.1506 22.5047 23.1253 22.0667 23.3359 21.7227L23.4697 21.4941C23.7704 20.9554 23.992 20.3797 24.1299 19.7793L24.1758 19.6348C24.307 19.3091 24.6076 19.075 24.9648 19.0352L28.1377 18.6816V17.8594L24.9336 17.4746C24.5834 17.4325 24.2885 17.2047 24.1562 16.8867L24.1104 16.7451V16.7441C23.9668 16.1551 23.7422 15.5916 23.4424 15.0645L23.3096 14.8408C23.0929 14.493 23.1192 14.0464 23.375 13.7266L25.3936 11.2002L24.8125 10.6191L22.249 12.6338C21.9712 12.8519 21.6009 12.8988 21.2822 12.7666L21.1494 12.6982C20.6373 12.3855 20.0868 12.1466 19.5107 11.9854L19.2617 11.9209C18.8648 11.8264 18.571 11.4928 18.5254 11.0889V11.0879L18.165 7.85156H17.3428L16.9531 11.0947ZM17.6035 12.9736C18.9157 12.9394 20.1782 13.3878 21.1797 14.249L21.375 14.4258C22.3273 15.3294 22.9029 16.5397 23.002 17.8574C23.1009 19.1751 22.7125 20.4578 21.9062 21.4932L21.7393 21.6973C20.8413 22.7413 19.5957 23.381 18.2285 23.5088V23.5342H17.7285C16.5452 23.5342 15.4085 23.1417 14.4756 22.4082L14.291 22.2568C13.2223 21.3375 12.5754 20.0539 12.4697 18.6484C12.3641 17.2427 12.813 15.877 13.7324 14.8086C14.6518 13.7404 15.9352 13.0929 17.3408 12.9873L17.6035 12.9736ZM17.4844 14.9141C16.5916 14.9814 15.7802 15.3908 15.1963 16.0693C14.6125 16.748 14.3293 17.6109 14.3965 18.5039L14.4131 18.6709C14.5158 19.4975 14.9155 20.2445 15.5518 20.792C16.2306 21.3759 17.093 21.6603 17.9863 21.5928L18.1533 21.5762C18.9799 21.4734 19.727 21.0737 20.2744 20.4375C20.8582 19.7589 21.1419 18.896 21.0752 18.0029C21.0125 17.1659 20.6484 16.4007 20.0439 15.8271L19.9199 15.7148C19.3062 15.1869 18.5418 14.9044 17.7422 14.9043H17.7412L17.4844 14.9141ZM10.8145 3.08301C10.2694 3.08309 9.82449 3.528 9.82422 4.07324C9.82422 4.61871 10.2692 5.06339 10.8145 5.06348C11.3597 5.06348 11.8047 4.61846 11.8047 4.07324C11.8044 3.52826 11.3595 3.08301 10.8145 3.08301Z" fill="url(#paint0_linear_1285_130)"/>
<defs>
<linearGradient id="paint0_linear_1285_130" x1="0.1185" y1="20.9925" x2="35.0156" y2="18.5072" gradientUnits="userSpaceOnUse">
<stop stop-color="#FBB32B"/>
<stop offset="0.27" stop-color="#E54D8B"/>
<stop offset="0.53" stop-color="#AE3D8F"/>
<stop offset="0.77" stop-color="#5452A2"/>
<stop offset="1" stop-color="#1364AB"/>
</linearGradient>
</defs>
</svg>
