<svg width="124" height="72" viewBox="0 0 124 72" fill="none" xmlns="http://www.w3.org/2000/svg">
<g clip-path="url(#clip0_598_294)">
<path d="M61.1791 49.4346C61.1791 51.7511 59.2958 53.5968 57.0169 53.5968C54.7381 53.5968 52.8547 51.7511 52.8547 49.4346C52.8547 47.1181 54.7381 45.2725 57.0169 45.2725C59.2958 45.2725 61.1791 47.1558 61.1791 49.4346Z" fill="#9A4494"/>
<path d="M68.5993 53.5566C66.2344 53.2256 64.6416 50.9818 65.0963 48.6384C65.8873 44.5731 68.4864 38.8396 72.4198 34.7743C72.8853 34.2954 73.3588 33.838 73.8646 33.3537C75.4063 31.8713 77.0017 30.3431 78.0806 28.2741C80.0877 22.9147 78.5891 18.2413 73.6225 14.3805C64.6551 7.40672 48.5203 6.26865 40.4219 12.0424L40.2632 12.1554L40.0937 12.255C33.5531 16.0486 30.0232 22.5111 29.9156 26.9342C29.8591 29.3073 30.6689 31.0076 32.3908 32.1349C34.3522 33.3457 36.2571 33.986 39.5879 29.848C43.785 23.7299 50.4305 20.9425 56.5648 22.7452C62.0776 24.3648 65.7205 29.2265 65.8497 35.1321C65.9008 37.4352 64.074 39.3428 61.7709 39.3912C59.4652 39.4423 57.5603 37.6155 57.5119 35.3124C57.4634 33.0443 56.2312 31.3386 54.216 30.7467C52.1255 30.1332 48.9777 30.8381 46.4056 34.6559L46.2118 34.9196C43.9303 37.793 41.5923 39.6602 39.0632 40.6261C36.5745 41.5759 32.6303 42.1005 27.9596 39.2029L27.895 39.1625C23.6952 36.4478 21.4513 32.0354 21.5805 26.7352C21.7742 18.6718 27.4592 10.0165 35.7459 5.13865C41.2748 1.26166 48.9669 -0.514058 57.4338 0.128967C65.4999 0.742397 73.2673 3.53512 78.7425 7.79415C86.6713 13.9607 89.2353 22.5918 85.7835 31.4785L85.7135 31.6587L85.6274 31.8336C83.9055 35.2747 81.5433 37.5455 79.6438 39.367C79.1972 39.7974 78.7747 40.201 78.4169 40.5723C75.8959 43.1767 73.8458 47.0913 73.262 50.1935C72.8503 52.3781 70.8055 53.8606 68.602 53.5539L68.5993 53.5566Z" fill="url(#paint0_linear_598_294)"/>
<path d="M7.86966 72.0001C6.38182 72.0001 5.04466 71.6638 3.85815 70.9939C2.66896 70.3239 1.72998 69.3984 1.03853 68.22C0.347072 67.0415 0 65.7205 0 64.2542C0 62.7879 0.341691 61.4722 1.02238 60.3046C1.70308 59.1369 2.6286 58.2141 3.79627 57.5307C4.96394 56.85 6.26075 56.5083 7.68402 56.5083C9.10728 56.5083 10.2911 56.8285 11.3565 57.4688C12.4193 58.1091 13.256 58.9862 13.8667 60.1028C14.4748 61.2193 14.7815 62.4892 14.7815 63.9125C14.7815 64.16 14.7654 64.4129 14.7358 64.6712C14.7035 64.9295 14.6578 65.2147 14.5959 65.5241H2.38646V62.7368H12.8282L11.5583 63.8533C11.518 62.9439 11.3404 62.1798 11.031 61.561C10.7216 60.9422 10.283 60.466 9.71533 60.1351C9.14764 59.8041 8.45081 59.64 7.62483 59.64C6.75849 59.64 6.00247 59.8257 5.36213 60.197C4.7218 60.5682 4.22675 61.0902 3.87429 61.7628C3.52184 62.4354 3.34696 63.2345 3.34696 64.1654C3.34696 65.0963 3.5326 65.9115 3.90389 66.6138C4.27518 67.316 4.80251 67.8594 5.4832 68.2415C6.1639 68.6235 6.94952 68.8146 7.83738 68.8146C8.60147 68.8146 9.30907 68.68 9.96017 68.411C10.6113 68.1419 11.1628 67.7491 11.6175 67.2326L13.786 69.4334C13.0623 70.2809 12.1852 70.9212 11.1521 71.3544C10.1189 71.7875 9.02388 72.0055 7.86697 72.0055L7.86966 72.0001Z" fill="black"/>
<path d="M23.0818 71.6907V56.8177H26.4906V71.6907H23.0818ZM32.9666 71.6907V62.8282C32.9666 61.8355 32.6572 61.0687 32.0357 60.5198C31.4169 59.9736 30.6528 59.6992 29.7434 59.6992C29.1246 59.6992 28.5704 59.823 28.0861 60.0705C27.6018 60.318 27.2144 60.6759 26.9238 61.1386C26.6332 61.6041 26.4906 62.1664 26.4906 62.8282L25.1588 62.0857C25.1588 60.9503 25.4064 59.9683 25.9014 59.1423C26.3965 58.3163 27.0691 57.6706 27.9166 57.2051C28.7641 56.7397 29.7138 56.5083 30.7658 56.5083C31.8178 56.5083 32.7702 56.737 33.615 57.189C34.4625 57.6437 35.1325 58.284 35.6302 59.11C36.1252 59.936 36.3728 60.9288 36.3728 62.0857V71.6907H32.9639H32.9666ZM42.8515 71.6907V62.8282C42.8515 61.8355 42.542 61.0687 41.9205 60.5198C41.3017 59.9736 40.5376 59.6992 39.6283 59.6992C39.0283 59.6992 38.4821 59.823 37.9871 60.0705C37.492 60.318 37.0992 60.6759 36.8086 61.1386C36.5181 61.6014 36.3755 62.1664 36.3755 62.8282L34.4545 62.0857C34.5567 60.9503 34.8876 59.9683 35.4472 59.1423C36.0042 58.3163 36.7225 57.6706 37.5996 57.2051C38.4767 56.7397 39.4426 56.5083 40.4973 56.5083C41.552 56.5083 42.542 56.737 43.4111 57.189C44.2774 57.6437 44.9716 58.284 45.4881 59.11C46.0047 59.936 46.263 60.9288 46.263 62.0857V71.6907H42.8541H42.8515Z" fill="black"/>
<path d="M55.3674 71.6909V56.8179H58.7763V71.6909H55.3674Z" fill="black"/>
<path d="M73.0279 72.0001C72.2019 72.0001 71.4056 71.8925 70.6415 71.6745C69.8774 71.4566 69.1751 71.1472 68.5348 70.7436C67.8945 70.3401 67.3375 69.8504 66.8613 69.2719L69.0299 67.1034C69.5464 67.7034 70.141 68.1527 70.811 68.4514C71.4809 68.75 72.2423 68.9007 73.0871 68.9007C73.8512 68.9007 74.4297 68.7877 74.8225 68.559C75.2153 68.333 75.4117 68.002 75.4117 67.5662C75.4117 67.1303 75.226 66.7617 74.8548 66.5115C74.4835 66.264 74.0019 66.0514 73.4127 65.8766C72.8234 65.7017 72.2046 65.5214 71.5535 65.3358C70.9024 65.1501 70.2836 64.8972 69.6944 64.5771C69.1052 64.2569 68.6263 63.8183 68.2523 63.2614C67.881 62.7045 67.6954 61.9807 67.6954 61.0929C67.6954 60.1431 67.916 59.3279 68.3626 58.6445C68.8065 57.9639 69.4361 57.4365 70.2513 57.0652C71.0665 56.6939 72.0432 56.5083 73.1786 56.5083C74.3758 56.5083 75.4359 56.7208 76.3534 57.1433C77.2735 57.5657 78.043 58.2033 78.6618 59.0481L76.4933 61.2166C76.0601 60.6785 75.5623 60.2777 75.0054 60.0086C74.4485 59.7396 73.8082 59.605 73.0844 59.605C72.4037 59.605 71.8764 59.7073 71.5051 59.9145C71.1338 60.1216 70.9482 60.4203 70.9482 60.8131C70.9482 61.2274 71.1338 61.5476 71.5051 61.7736C71.8764 62.0023 72.358 62.1987 72.9472 62.3628C73.5364 62.5296 74.1552 62.7099 74.8063 62.9063C75.4574 63.1027 76.0762 63.3717 76.6655 63.7107C77.2547 64.0524 77.7336 64.5071 78.1075 65.0748C78.4788 65.6425 78.6645 66.3824 78.6645 67.2891C78.6645 68.7365 78.1587 69.8827 77.147 70.7275C76.1354 71.575 74.7606 71.9974 73.0252 71.9974L73.0279 72.0001Z" fill="black"/>
<path d="M87.064 71.6908V49.3813H90.4728V71.6908H87.064ZM97.2555 71.6908V63.1082C97.2555 62.1181 96.9407 61.3002 96.3112 60.6599C95.6816 60.0195 94.8691 59.6993 93.879 59.6993C93.2171 59.6993 92.6279 59.8446 92.114 60.1325C91.5974 60.4231 91.1939 60.824 90.906 61.3405C90.6154 61.8571 90.4728 62.4463 90.4728 63.1055L89.141 62.3629C89.141 61.2275 89.3885 60.2213 89.8836 59.3415C90.3786 58.4644 91.0647 57.773 91.9445 57.2672C92.8216 56.7613 93.809 56.5084 94.904 56.5084C95.9991 56.5084 97.0107 56.756 97.8797 57.251C98.746 57.7461 99.4294 58.4348 99.9245 59.3119C100.42 60.189 100.667 61.206 100.667 62.3629V71.6881H97.2582L97.2555 71.6908Z" fill="black"/>
<path d="M115.938 72.0001C114.596 72.0001 113.382 71.6584 112.298 70.9777C111.214 70.297 110.356 69.3715 109.726 68.2038C109.097 67.0362 108.782 65.7313 108.782 64.2838C108.782 62.8363 109.097 61.5018 109.726 60.3342C110.356 59.1665 111.214 58.2383 112.298 57.5468C113.382 56.8554 114.596 56.5083 115.938 56.5083C117.074 56.5083 118.08 56.7504 118.96 57.2374C119.837 57.7217 120.534 58.3889 121.05 59.2364C121.567 60.084 121.825 61.0445 121.825 62.118V66.3931C121.825 67.4666 121.572 68.4271 121.066 69.2746C120.561 70.1221 119.864 70.7867 118.976 71.2737C118.088 71.758 117.076 72.0028 115.938 72.0028V72.0001ZM116.498 68.7769C117.757 68.7769 118.774 68.3545 119.549 67.507C120.324 66.6595 120.711 65.5752 120.711 64.2542C120.711 63.3663 120.536 62.5807 120.184 61.9C119.832 61.2193 119.342 60.6866 118.712 60.3046C118.083 59.9225 117.343 59.7315 116.498 59.7315C115.653 59.7315 114.943 59.9225 114.313 60.3046C113.684 60.6866 113.186 61.2193 112.826 61.9C112.465 62.5807 112.282 63.3663 112.282 64.2542C112.282 65.1421 112.462 65.9277 112.826 66.6084C113.186 67.2891 113.681 67.8218 114.313 68.2038C114.943 68.5859 115.672 68.7769 116.498 68.7769ZM120.493 71.6907V67.6926L121.083 64.0686L120.493 60.4741V56.8177H123.902V71.6907H120.493Z" fill="black"/>
</g>
<defs>
<linearGradient id="paint0_linear_598_294" x1="21.7988" y1="30.4076" x2="87.4097" y2="24.3211" gradientUnits="userSpaceOnUse">
<stop stop-color="#FBB32B"/>
<stop offset="0.27" stop-color="#E54D8B"/>
<stop offset="0.53" stop-color="#AE3D8F"/>
<stop offset="0.77" stop-color="#5452A2"/>
<stop offset="1" stop-color="#1364AB"/>
</linearGradient>
<clipPath id="clip0_598_294">
<rect width="123.902" height="72" fill="white"/>
</clipPath>
</defs>
</svg>
